<svg width="36" height="36" viewBox="0 0 36 36" fill="none" xmlns="http://www.w3.org/2000/svg">
<g clip-path="url(#clip0_226_101)">
<path d="M10.6364 0C4.77203 0 0 4.77203 0 10.6364V25.3636C0 31.228 4.77203 36 10.6364 36H25.3636C31.228 36 36 31.228 36 25.3636V10.6364C36 4.77203 31.228 0 25.3636 0H10.6364ZM10.6364 1.63636H25.3636C30.3435 1.63636 34.3636 5.65651 34.3636 10.6364V25.3636C34.3636 30.3435 30.3435 34.3636 25.3636 34.3636H10.6364C5.65651 34.3636 1.63636 30.3435 1.63636 25.3636V10.6364C1.63636 5.65651 5.65651 1.63636 10.6364 1.63636ZM27.8182 6.54545C27.3842 6.54545 26.968 6.71786 26.6611 7.02473C26.3542 7.33161 26.1818 7.74783 26.1818 8.18182C26.1818 8.61581 26.3542 9.03202 26.6611 9.3389C26.968 9.64578 27.3842 9.81818 27.8182 9.81818C28.2522 9.81818 28.6684 9.64578 28.9753 9.3389C29.2821 9.03202 29.4545 8.61581 29.4545 8.18182C29.4545 7.74783 29.2821 7.33161 28.9753 7.02473C28.6684 6.71786 28.2522 6.54545 27.8182 6.54545ZM18 9C13.0391 9 9 13.0391 9 18C9 22.9609 13.0391 27 18 27C22.9609 27 27 22.9609 27 18C27 13.0391 22.9609 9 18 9ZM18 10.6364C22.0765 10.6364 25.3636 13.9235 25.3636 18C25.3636 22.0765 22.0765 25.3636 18 25.3636C13.9235 25.3636 10.6364 22.0765 10.6364 18C10.6364 13.9235 13.9235 10.6364 18 10.6364Z" fill="#FDF4E3"/>
</g>
<defs>
<clipPath id="clip0_226_101">
<rect width="36" height="36" fill="white"/>
</clipPath>
</defs>
</svg>
