<svg width="72" height="72" viewBox="0 0 72 72" fill="none" xmlns="http://www.w3.org/2000/svg">
<circle cx="36" cy="36" r="36" fill="#7EB12A"/>
<path d="M19.5838 15.0373C19.0824 15.1233 18.6912 15.2255 18.4156 15.3464C18.3211 15.3894 18.2161 15.4297 18.1793 15.4404C18.1425 15.4512 18.0848 15.4808 18.048 15.5076C18.0113 15.5345 17.9535 15.5641 17.9168 15.5748C17.838 15.599 17.2736 15.9725 17.0925 16.1176C17.0242 16.1741 16.9113 16.2574 16.8431 16.3031C16.6698 16.424 16.4178 16.6793 16.3075 16.8513C16.255 16.9319 16.1526 17.077 16.0791 17.1738C15.9269 17.3753 15.7641 17.6199 15.7641 17.6467C15.7641 17.6548 15.7273 17.722 15.6801 17.7945C15.541 18.0176 15.2496 18.7781 15.1577 19.1624C15.1445 19.2135 15.1052 19.4634 15.0658 19.7187C14.9949 20.2051 14.9792 20.6431 15.029 20.8635C15.0422 20.9333 15.0789 21.1591 15.1078 21.3714C15.1734 21.8363 15.2522 22.1185 15.4359 22.5216C15.5121 22.6909 15.583 22.8548 15.5908 22.8843C15.6276 23.0107 15.8639 23.4138 16.0187 23.6099C16.0765 23.6879 16.1553 23.798 16.192 23.8545C16.2288 23.9136 16.4047 24.1098 16.5884 24.2898C17.0111 24.7171 17.3287 24.9563 17.8039 25.2143C17.9457 25.2895 18.09 25.3728 18.1268 25.397C18.2239 25.4615 18.9905 25.7114 19.295 25.7759C19.8306 25.8888 20.3687 25.9291 20.7363 25.8807C21.1642 25.827 21.5606 25.749 21.8415 25.663C22.0856 25.5851 22.6999 25.3352 22.7603 25.2895C22.7761 25.2761 22.8758 25.2223 22.9835 25.1659C23.1777 25.0691 23.603 24.7601 23.7028 24.6472C23.7316 24.615 23.8209 24.5478 23.9023 24.4967C24.0335 24.4161 24.1858 24.2603 24.3591 24.0318C24.388 23.9915 24.4352 23.9405 24.4615 23.919C24.5953 23.8061 24.997 23.1316 25.1991 22.6828C25.3645 22.3173 25.4643 22.0002 25.5562 21.5407C25.5877 21.3768 25.6323 21.1671 25.6533 21.0731C25.6822 20.9522 25.6874 20.8608 25.6717 20.764C25.6481 20.5974 25.6481 20.3421 25.6743 20.0868C25.6874 19.9632 25.6848 19.8772 25.6664 19.8423C25.6507 19.8127 25.6244 19.716 25.6113 19.63C25.5089 19.0146 25.4643 18.8265 25.3278 18.4664C25.1729 18.0552 24.8815 17.5151 24.619 17.1603C24.535 17.0421 24.4431 16.9077 24.4168 16.8647C24.3906 16.819 24.3328 16.7545 24.2882 16.7223C24.1622 16.6336 24.0519 16.5261 23.9863 16.4294C23.9548 16.3837 23.8839 16.3165 23.8288 16.2843C23.7763 16.252 23.6896 16.1875 23.6371 16.1418C23.5505 16.0639 23.3667 15.9349 23.1016 15.7575C22.6264 15.4404 21.8389 15.1556 21.1064 15.0373C20.8071 14.9863 19.8778 14.989 19.5838 15.0373Z" fill="#FDF4E3"/>
<path d="M35.2297 15.04C34.5971 15.1448 34.1219 15.2953 33.6152 15.5506C33.5076 15.6044 33.3842 15.6743 33.3396 15.7092C33.2976 15.7414 33.1663 15.8274 33.0508 15.8973C32.9353 15.9672 32.783 16.0774 32.7095 16.1392C32.6386 16.201 32.531 16.2843 32.4732 16.3219C32.3341 16.4186 32.0322 16.725 31.985 16.8191C31.9666 16.8594 31.9088 16.94 31.8563 17.0018C31.6752 17.2168 31.5544 17.3915 31.4599 17.5715C31.4074 17.6709 31.3339 17.7972 31.2971 17.8537C31.2604 17.9101 31.2 18.0418 31.1606 18.1493C31.1239 18.2541 31.0635 18.4019 31.0294 18.4771C30.9532 18.6438 30.78 19.2269 30.78 19.3183C30.78 19.3881 30.7511 19.5924 30.6855 19.9552C30.6435 20.2024 30.6382 20.6566 30.675 20.8151C30.6907 20.8742 30.7117 21.0059 30.7248 21.1107C30.7852 21.5918 30.8141 21.7449 30.8745 21.9411C30.9086 22.0594 30.9375 22.1668 30.9375 22.1857C30.9375 22.2018 30.9821 22.312 31.0399 22.4275C31.095 22.5458 31.1501 22.6721 31.1606 22.7097C31.1895 22.8091 31.3549 23.1423 31.4205 23.2337C31.452 23.2767 31.5124 23.3735 31.5518 23.446C31.5938 23.5186 31.6647 23.6207 31.7093 23.6744C31.7566 23.7282 31.8196 23.8142 31.8484 23.8652C31.9062 23.962 32.5835 24.6392 32.7016 24.7198C32.7384 24.744 32.846 24.8219 32.9379 24.8918C33.4708 25.2922 34.3004 25.6469 35.0066 25.7813C35.8834 25.9479 36.1276 25.9479 36.9913 25.784C37.4874 25.6872 38.107 25.4696 38.4456 25.2707C38.5113 25.2331 38.6241 25.1713 38.695 25.1337C38.8394 25.0638 39.1124 24.8649 39.3382 24.6741C39.417 24.6043 39.5325 24.5183 39.5902 24.478C39.6506 24.4376 39.7635 24.3301 39.8396 24.2388C39.9184 24.1474 40.0444 24.0023 40.1205 23.9136C40.194 23.8276 40.257 23.747 40.257 23.7309C40.257 23.7174 40.2912 23.6664 40.3332 23.618C40.4198 23.5132 40.6771 23.0805 40.7296 22.9489C40.7479 22.8978 40.8188 22.7473 40.8818 22.6156C41.042 22.2824 41.1417 21.9304 41.2677 21.2478C41.2887 21.1295 41.3202 20.9898 41.3334 20.936C41.3491 20.8716 41.3491 20.8071 41.3334 20.7479C41.2992 20.6216 41.2992 20.24 41.336 20.1325C41.3596 20.0654 41.3544 20.0035 41.3124 19.8262C41.2835 19.7053 41.2389 19.4903 41.2152 19.3505C41.1522 18.9716 41.0288 18.5658 40.8818 18.2487C40.7059 17.8725 40.4382 17.3861 40.2938 17.1872C40.2282 17.0985 40.1389 16.9695 40.089 16.8997C40.0418 16.8298 39.9551 16.7357 39.9 16.6928C39.8422 16.6524 39.7372 16.5476 39.6664 16.4643C39.5955 16.3783 39.5088 16.295 39.4721 16.2735C39.4353 16.2547 39.3697 16.2063 39.3251 16.1687C39.2043 16.0585 38.6005 15.6501 38.5113 15.6151C38.4693 15.599 38.3642 15.5479 38.2776 15.505C37.918 15.3142 37.2984 15.1234 36.7524 15.0347C36.4557 14.9863 35.5238 14.989 35.2297 15.04Z" fill="#FDF4E3"/>
<path d="M50.955 15.0266C50.8841 15.04 50.7108 15.0696 50.5743 15.0938C50.4378 15.118 50.2593 15.1583 50.1805 15.1851C50.1018 15.212 49.9967 15.2443 49.9469 15.2523C49.897 15.2631 49.7736 15.3141 49.6712 15.3625C49.5688 15.4136 49.4717 15.4539 49.456 15.4539C49.4402 15.4539 49.3982 15.4754 49.3641 15.5022C49.3299 15.5318 49.2617 15.5667 49.2144 15.5829C49.1672 15.599 49.0385 15.6742 48.9309 15.7495C48.8206 15.822 48.7183 15.8838 48.7025 15.8838C48.6841 15.8865 48.6054 15.9403 48.5266 16.0075C48.4479 16.072 48.3061 16.1848 48.2116 16.2547C47.9648 16.4401 47.7443 16.6578 47.6472 16.811C47.5999 16.8835 47.5343 16.9749 47.5028 17.0125C47.3794 17.1523 47.1641 17.4613 47.1064 17.5769C47.0722 17.644 47.0171 17.7381 46.9804 17.7865C46.9095 17.8859 46.668 18.4717 46.5656 18.7996C46.4789 19.0818 46.4343 19.2672 46.4002 19.4983C46.3871 19.6004 46.3556 19.802 46.3346 19.9444C46.2663 20.3932 46.2794 20.6082 46.4369 21.5568C46.4894 21.8793 46.5656 22.1238 46.7467 22.5619C46.9384 23.0268 47.0512 23.2283 47.319 23.6019C47.3847 23.6932 47.4687 23.8115 47.5054 23.8625C47.5842 23.9754 48.2378 24.6419 48.3087 24.6795C48.335 24.6956 48.4452 24.7762 48.5529 24.8622C48.6605 24.9455 48.9204 25.1121 49.1304 25.2304C49.7395 25.5717 50.4168 25.7786 51.2726 25.8834C51.7688 25.9425 52.5826 25.8458 53.1733 25.6523C53.8978 25.4185 54.5751 25.0503 55.0109 24.658C55.0766 24.5989 55.1894 24.5075 55.2603 24.4591C55.3338 24.4107 55.452 24.2952 55.5228 24.2065C55.5963 24.1178 55.7066 23.9808 55.7722 23.9028C56.1529 23.4487 56.4994 22.7876 56.7199 22.1104C56.7751 21.9357 56.8223 21.7664 56.8223 21.7369C56.8223 21.7073 56.8459 21.5837 56.8722 21.4627C57.014 20.8581 57.0113 20.8635 56.9798 20.713C56.9483 20.5732 56.9562 20.2749 56.9956 20.0815C57.0061 20.025 56.9956 19.931 56.972 19.8396C56.9483 19.7536 56.9063 19.5521 56.8748 19.3908C56.7672 18.7996 56.5335 18.1708 56.2211 17.6306C56.1844 17.5634 56.1345 17.4774 56.1135 17.4371C56.0925 17.3968 56.0164 17.2839 55.9429 17.1845C55.872 17.0851 55.7854 16.9615 55.7539 16.9077C55.7224 16.854 55.6278 16.7545 55.5438 16.6874C55.4598 16.6202 55.3574 16.5154 55.3128 16.4562C55.2708 16.3971 55.1842 16.3138 55.1212 16.2708C55.0608 16.2278 54.9085 16.1176 54.7799 16.0236C54.4885 15.8113 54.1945 15.6151 54.163 15.6151C54.1498 15.6151 54.058 15.5721 53.9608 15.5211C53.5172 15.2899 53.0236 15.1368 52.3988 15.0373C52.1363 14.9943 51.1755 14.9863 50.955 15.0266Z" fill="#FDF4E3"/>
<path d="M19.8196 27.2002C19.3051 27.2271 19.2998 27.2297 18.9008 27.3399C18.2917 27.5119 17.9426 27.6409 17.6144 27.8156C17.3125 27.9795 16.7717 28.3423 16.5985 28.4982C16.5171 28.5734 16.378 28.6943 16.2861 28.7669C16.1968 28.8395 16.1049 28.9335 16.0813 28.9792C16.0577 29.0222 15.9947 29.1136 15.9422 29.1781C15.887 29.2426 15.8424 29.3044 15.8424 29.3151C15.8424 29.3259 15.7925 29.3957 15.7348 29.4683C15.5379 29.7128 15.2911 30.2718 15.1257 30.8442L15.0417 31.1344L15.0338 43.953C15.026 55.9734 15.0286 56.777 15.0706 56.8576C15.1021 56.9194 15.1441 56.9543 15.2097 56.9731C15.2701 56.9893 17.1157 57 20.4838 57H25.6607L25.687 56.9301C25.7054 56.8871 25.7133 52.3563 25.7133 44.1787C25.7133 31.86 25.7106 31.4919 25.6634 31.344C25.6371 31.2581 25.5951 31.0914 25.5689 30.9732C25.519 30.7367 25.3641 30.253 25.2617 30.0192C25.1882 29.8499 24.9703 29.4979 24.7787 29.2399C24.5083 28.8717 23.7575 28.1999 23.4188 28.0252C23.3584 27.9956 23.2797 27.9473 23.2403 27.9177C22.9069 27.6785 21.6888 27.2701 21.1716 27.2244C20.7332 27.1867 20.2239 27.1787 19.8196 27.2002Z" fill="#FDF4E3"/>
<path d="M35.4403 27.2029C35.0754 27.2217 34.9363 27.2405 34.679 27.3077C34.1855 27.4367 33.5974 27.6436 33.3402 27.7806C32.9254 27.9956 32.4528 28.3127 32.2218 28.525C32.101 28.6379 32.0748 28.6594 31.9015 28.7911C31.849 28.8314 31.7624 28.9281 31.7125 29.0061C31.6233 29.1404 31.5314 29.2694 31.3292 29.5516C31.0798 29.9009 30.8541 30.4975 30.7123 31.1747C30.6572 31.4327 30.6572 56.9247 30.7123 56.9704C30.7386 56.9919 32.1299 56.9973 36.0153 56.9946C41.2001 56.9866 41.2867 56.9866 41.3235 56.9355C41.355 56.8898 41.3602 55.1215 41.3523 44.1438L41.3445 31.4032L41.2368 31.0001C41.1056 30.5002 40.906 29.9332 40.8247 29.8311C40.8063 29.8096 40.7512 29.7236 40.7039 29.643C40.4545 29.2157 39.877 28.5788 39.5147 28.3289C39.4385 28.2778 39.3204 28.1891 39.2522 28.1327C39.1813 28.0762 39.113 28.0306 39.0999 28.0306C39.0894 28.0306 38.9923 27.9795 38.8872 27.915C38.6247 27.7565 38.5145 27.7081 38.1049 27.563C37.5641 27.3695 37.0968 27.2485 36.8186 27.2244C36.3697 27.1867 35.8945 27.1787 35.4403 27.2029Z" fill="#FDF4E3"/>
<path d="M51.1125 27.2002C50.6137 27.2271 50.6426 27.2217 50.2462 27.3292C49.5715 27.5146 49.0176 27.7323 48.671 27.9526C48.4085 28.1193 47.978 28.4256 47.9229 28.4874C47.8861 28.525 47.768 28.6272 47.6603 28.7078C47.5159 28.8153 47.4319 28.904 47.3611 29.0222C47.3086 29.1136 47.256 29.1861 47.2455 29.1861C47.235 29.1861 47.2035 29.2264 47.1747 29.2721C47.1484 29.3205 47.0775 29.428 47.0145 29.5086C46.7993 29.7961 46.5577 30.3685 46.395 30.9866L46.3346 31.2151V44.082C46.3346 55.4897 46.3398 56.9516 46.374 56.9731C46.3976 56.9893 48.4059 57 51.6795 57C56.0794 57 56.951 56.9946 56.9772 56.9624C56.9982 56.9355 57.0035 53.5817 56.9982 44.1519L56.9904 31.3763L56.9064 31.0538C56.7252 30.3739 56.5861 30.0192 56.3656 29.6806C56.3104 29.5919 56.2002 29.4226 56.1214 29.3017C56.0269 29.1539 55.8668 28.9711 55.6463 28.7561C55.347 28.4605 55.2367 28.3719 54.8482 28.1031C54.3914 27.786 53.9057 27.5791 53.0552 27.3399C52.5826 27.2056 51.9132 27.1572 51.1125 27.2002Z" fill="#FDF4E3"/>
</svg>
