<svg width="36" height="36" viewBox="0 0 36 36" fill="none" xmlns="http://www.w3.org/2000/svg">
<g clip-path="url(#clip0_226_103)">
<path d="M4.27404 -0.015316C1.91531 -0.015316 -0.0153198 1.91531 -0.0153198 4.27405V31.726C-0.0153198 34.0847 1.91531 36.0153 4.27404 36.0153H31.726C34.0847 36.0153 36.0153 34.0847 36.0153 31.726V4.27405C36.0153 1.91531 34.0847 -0.015316 31.726 -0.015316H4.27404ZM4.27404 1.70043H31.726C33.1573 1.70043 34.2996 2.8427 34.2996 4.27405V31.726C34.2996 33.1573 33.1573 34.2996 31.726 34.2996H4.27404C2.8427 34.2996 1.70043 33.1573 1.70043 31.726V4.27405C1.70043 2.8427 2.8427 1.70043 4.27404 1.70043ZM16.6244 10.2725C15.7172 10.2704 14.9083 10.3211 14.1848 10.6763L14.1831 10.6779C13.8304 10.8517 13.5818 11.0724 13.3839 11.3347C13.2849 11.4659 13.1835 11.5836 13.1292 11.8826C13.1021 12.0321 13.0868 12.2744 13.2432 12.5361C13.3995 12.7978 13.7139 12.9466 13.9151 12.9734C14.0548 12.992 14.3702 13.1263 14.3993 13.1661L14.401 13.1694C14.401 13.1694 14.5233 13.4886 14.5585 13.7726C14.5936 14.0567 14.592 14.287 14.592 14.287C14.5916 14.3099 14.5922 14.3329 14.5936 14.3557C14.5936 14.3557 14.6433 15.1 14.6104 15.8687C14.5973 16.1751 14.5577 16.4477 14.5166 16.6914C14.2111 16.3541 13.7609 15.7433 13.1108 14.6171C12.3896 13.367 11.8156 12.2462 11.8156 12.2462C11.7855 12.1486 11.6789 11.8448 11.2627 11.5392C10.8077 11.2038 10.368 11.1538 10.368 11.1538C10.3128 11.1427 10.2567 11.1371 10.2004 11.137L6.81918 11.1387C6.81918 11.1387 6.61645 11.127 6.37348 11.1605C6.13052 11.194 5.76467 11.2213 5.41173 11.6397L5.41005 11.6414C5.09463 12.0183 5.1137 12.4348 5.15202 12.6701C5.19033 12.9054 5.27601 13.084 5.27601 13.084C5.27766 13.0874 5.27934 13.0907 5.28104 13.094C5.28104 13.094 8.04672 18.9089 11.1722 22.3329C13.4419 24.8191 15.7715 24.8613 17.6934 24.8613H19.1276C19.4938 24.8613 19.825 24.847 20.1916 24.6334C20.5582 24.4199 20.8048 23.9 20.8048 23.5393C20.8048 23.1614 20.8613 22.8643 20.9305 22.7116C20.9792 22.6042 21.0178 22.5655 21.078 22.534C21.0907 22.5421 21.0825 22.5374 21.1182 22.5625C21.261 22.6629 21.4968 22.8918 21.7532 23.1774C22.266 23.7485 22.8481 24.5319 23.6298 25.0691C24.1898 25.4543 24.7188 25.6253 25.121 25.6873C25.373 25.7262 25.5687 25.7187 25.7075 25.7075L28.9111 25.7209C28.9301 25.7209 28.9491 25.7204 28.968 25.7192C28.968 25.7192 29.52 25.7256 30.094 25.3824C30.381 25.2108 30.7194 24.8854 30.8296 24.4106C30.9397 23.9358 30.8013 23.4438 30.5313 22.9948V22.9931C30.5782 23.0708 30.4889 22.9111 30.3973 22.7619C30.3057 22.6126 30.1727 22.4115 29.9817 22.162C29.5999 21.663 28.9882 20.9647 27.9996 20.0442H27.9979C27.4958 19.577 27.1567 19.2462 27.0177 19.0623C26.8787 18.8784 26.9243 18.975 26.9339 18.9283C26.9532 18.8348 27.5558 17.9654 28.7821 16.3278C29.5274 15.3311 30.0506 14.5827 30.3956 13.9603C30.7406 13.3379 30.9894 12.7988 30.8161 12.139L30.8145 12.1356C30.7376 11.846 30.5275 11.579 30.3118 11.4336C30.0961 11.2882 29.8916 11.2313 29.7086 11.1957C29.3427 11.1245 29.0233 11.137 28.7268 11.137C28.105 11.137 25.3464 11.1588 25.1193 11.1588C24.8511 11.1588 24.4074 11.2808 24.2112 11.3984C23.7178 11.6953 23.5762 12.0854 23.5762 12.0854C23.5672 12.1019 23.5589 12.1186 23.551 12.1356C23.551 12.1356 22.982 13.3975 22.2492 14.6439C21.5068 15.9082 20.9583 16.5112 20.6272 16.7903C20.6181 16.7406 20.6197 16.7809 20.6138 16.7115C20.5842 16.3585 20.6172 15.8706 20.6172 15.3946C20.6172 14.1125 20.7259 13.2151 20.6674 12.4222C20.6382 12.0257 20.5648 11.6168 20.3039 11.2409C20.0429 10.865 19.6087 10.6208 19.1796 10.5171C18.9221 10.455 18.6286 10.2934 17.566 10.2825H17.5644C17.2394 10.2793 16.9268 10.2731 16.6244 10.2725ZM17.5476 11.9983C18.4878 12.0079 18.2536 12.0597 18.7758 12.1859C18.9377 12.225 18.8985 12.2248 18.8947 12.2194C18.891 12.214 18.9385 12.3025 18.9567 12.5495C18.9931 13.0435 18.9014 14.0258 18.9014 15.3946C18.9014 15.7678 18.8564 16.3004 18.9031 16.8556C18.9498 17.4108 19.0875 18.1234 19.7509 18.5529C20.0654 18.7568 20.4306 18.7696 20.7428 18.692C21.0551 18.6144 21.3384 18.4527 21.6359 18.2145C22.2309 17.7381 22.8945 16.9341 23.7286 15.5135C24.5083 14.1875 25.0754 12.9248 25.0942 12.8829C25.0979 12.88 25.1016 12.8779 25.1059 12.8746C25.1166 12.8747 25.1056 12.8746 25.1193 12.8746C25.4396 12.8746 28.1475 12.8528 28.7268 12.8528C28.862 12.8528 28.9112 12.8609 29.0183 12.8645C28.9892 12.9617 29.0216 12.8997 28.8943 13.1292C28.6275 13.6107 28.1357 14.3261 27.4081 15.299C26.2126 16.8957 25.4716 17.5213 25.2534 18.5814C25.1443 19.1115 25.3487 19.699 25.6488 20.0961C25.9489 20.4932 26.3276 20.8333 26.8301 21.3008C27.7605 22.1672 28.3063 22.7966 28.6195 23.2059C28.7761 23.4105 28.8749 23.5583 28.9362 23.6583C28.9975 23.7582 28.9824 23.7477 29.0619 23.8794C29.1142 23.9671 29.0949 23.9136 29.1038 23.9398C29.0009 23.9688 28.8763 24.0037 28.8692 24.0051L25.7142 23.9917C25.6573 23.9917 25.6006 23.9973 25.5449 24.0085C25.5449 24.0085 25.5528 24.0177 25.3841 23.9917C25.2153 23.9657 24.9469 23.8926 24.6016 23.6549C24.1849 23.3686 23.6015 22.6679 23.0299 22.0313C22.7442 21.7131 22.4592 21.4074 22.1051 21.1584C21.7509 20.9094 21.2211 20.6752 20.649 20.8551C20.0552 21.0416 19.5929 21.505 19.3672 22.0029C19.1992 22.3734 19.1856 22.7605 19.1595 23.1456C19.131 23.1477 19.1638 23.1456 19.1276 23.1456H17.6934C15.7446 23.1456 14.3608 23.2803 12.4389 21.1751C9.85372 18.343 7.48516 13.6309 7.09899 12.8544L10.0747 12.8528C10.127 12.8728 10.239 12.9149 10.2456 12.9198L10.249 12.9231C10.1402 12.8436 10.254 12.955 10.254 12.955C10.2645 12.9807 10.2763 13.0058 10.2892 13.0304C10.2892 13.0304 10.8788 14.1823 11.6246 15.475C12.3561 16.7422 12.8892 17.5339 13.404 18.057C13.6614 18.3185 13.9213 18.5283 14.2686 18.6468C14.6159 18.7652 15.0644 18.7218 15.3661 18.5563C15.9824 18.2189 16.0652 17.7213 16.1653 17.2862C16.2655 16.8506 16.3054 16.3865 16.3245 15.9425C16.3614 15.0806 16.3092 14.3348 16.306 14.2887C16.3062 14.2725 16.3102 13.9615 16.2608 13.5632C16.2103 13.1553 16.1539 12.6566 15.7849 12.1541L15.7833 12.1524C15.7807 12.1489 15.7775 12.1491 15.7749 12.1457C16.2628 12.0757 16.6803 11.9896 17.5476 11.9983ZM25.116 12.8394L25.1043 12.8662C25.1024 12.8672 25.103 12.8649 25.1009 12.8662C25.1045 12.8593 25.116 12.8394 25.116 12.8394Z" fill="#FDF4E3"/>
</g>
<defs>
<clipPath id="clip0_226_103">
<rect width="36" height="36" fill="white"/>
</clipPath>
</defs>
</svg>
